<svg id="Layer_1" data-name="Layer 1" xmlns="http://www.w3.org/2000/svg" viewBox="0 0 598.85 114.19"><defs><style>.cls-1{fill:#fff;}</style></defs><title>logo_main</title><path class="cls-1" d="M207.78,268.38H206.1a21.58,21.58,0,0,0-2-4,18.12,18.12,0,0,0-3.52-4.18,18.24,18.24,0,0,0-12.6-4.55,18.16,18.16,0,0,0-6.66,1.14A13.3,13.3,0,0,0,176.5,260a13.45,13.45,0,0,0-2.95,4.9,18.72,18.72,0,0,0-1,6.28,19.68,19.68,0,0,0,3.1,10.53,60.18,60.18,0,0,0,7.78,9.92q4.66,4.9,10.11,9.81a127.63,127.63,0,0,1,10.11,10.18,58.76,58.76,0,0,1,7.77,11.07,25.87,25.87,0,0,1,3.1,12.44,30.58,30.58,0,0,1-1.72,10,26,26,0,0,1-5.32,9,27,27,0,0,1-9.27,6.47,33.34,33.34,0,0,1-13.48,2.49,42,42,0,0,1-8.31-.8,54.34,54.34,0,0,1-7.28-2,46.73,46.73,0,0,1-6-2.56,43,43,0,0,1-4.33-2.53l1.76-16.93h1.92a24.2,24.2,0,0,0,2.76,6.86,23.68,23.68,0,0,0,4.7,5.74,22.71,22.71,0,0,0,6.4,4,20.5,20.5,0,0,0,7.89,1.49,19.55,19.55,0,0,0,7-1.19,16,16,0,0,0,5.32-3.29,14.3,14.3,0,0,0,3.41-5,16.69,16.69,0,0,0,1.18-6.35,22.31,22.31,0,0,0-1.76-8.93,35.15,35.15,0,0,0-4.63-7.77,64.13,64.13,0,0,0-6.51-7.12c-2.43-2.3-4.91-4.61-7.47-6.93s-5-4.72-7.47-7.17a56.91,56.91,0,0,1-6.5-7.85,40.07,40.07,0,0,1-4.64-9,30.37,30.37,0,0,1-1.76-10.53,24.84,24.84,0,0,1,2.34-10.91,26.08,26.08,0,0,1,6.2-8.31,27.71,27.71,0,0,1,8.77-5.29,28.7,28.7,0,0,1,10.11-1.83,37.71,37.71,0,0,1,7,.61A47.26,47.26,0,0,1,200.7,251q2.56.85,4.48,1.69l3.14,1.38Z" transform="translate(-158.84 -248.93)"/><path class="cls-1" d="M228.08,305.79A41,41,0,0,1,231.49,289a42,42,0,0,1,9.3-13.44,42.49,42.49,0,0,1,13.94-8.92A45.87,45.87,0,0,1,272,263.44a47.89,47.89,0,0,1,17,3,41.47,41.47,0,0,1,13.94,8.62,40.3,40.3,0,0,1,9.38,13.56,44.46,44.46,0,0,1,3.45,17.84,44,44,0,0,1-2.91,15.82,40,40,0,0,1-8.5,13.48,40.89,40.89,0,0,1-13.79,9.34,50.83,50.83,0,0,1-35.69.5,41.88,41.88,0,0,1-13.94-8.54,39.92,39.92,0,0,1-9.42-13.48A44.37,44.37,0,0,1,228.08,305.79Zm45.64,37.38a25,25,0,0,0,10.73-2.3,24.31,24.31,0,0,0,8.46-6.59,30.57,30.57,0,0,0,5.51-10.45,45.67,45.67,0,0,0,2-13.9,67.16,67.16,0,0,0-1.88-16.31,39.26,39.26,0,0,0-5.67-13A26.37,26.37,0,0,0,270.12,269a25.68,25.68,0,0,0-10.72,2.22,23.92,23.92,0,0,0-8.46,6.44A30.06,30.06,0,0,0,245.39,288a44.93,44.93,0,0,0-2,13.94,64.83,64.83,0,0,0,2,16.27,41.32,41.32,0,0,0,5.74,13.1,27.87,27.87,0,0,0,9.46,8.73A26.47,26.47,0,0,0,273.72,343.17Z" transform="translate(-158.84 -248.93)"/><path class="cls-1" d="M390.83,307.86c-1.58,0-3.55,0-5.9,0s-4.9-.06-7.66-.11-5.62-.09-8.58-.12-5.82,0-8.57,0-5.05,0-7.32.08-4.22.13-5.86.23v7.81q0,6.9.16,12t.42,8.84c.18,2.48.39,4.56.65,6.24a24.57,24.57,0,0,0,.92,4.14v.31H331.4v-.31a28.79,28.79,0,0,0,1-4.14q.42-2.52.69-6.24t.42-8.84q.17-5.13.16-12v-19.3q0-6.89-.16-12c-.1-3.4-.24-6.33-.42-8.81s-.41-4.56-.69-6.24a28.79,28.79,0,0,0-1-4.14v-.31h17.69v.31a24.57,24.57,0,0,0-.92,4.14c-.26,1.68-.47,3.76-.65,6.24s-.32,5.41-.42,8.81-.16,7.39-.16,12v5.21H358.2q4.21,0,8.89,0l9-.07q4.36,0,8.2-.12t6.51-.23v-4.75q0-6.89-.15-12c-.11-3.4-.25-6.33-.43-8.81s-.39-4.56-.65-6.24a24.57,24.57,0,0,0-.92-4.14v-.31h17.7v.31a27.36,27.36,0,0,0-1,4.14q-.42,2.52-.69,6.24c-.18,2.48-.32,5.41-.42,8.81s-.16,7.39-.16,12v19.3q0,6.9.16,12t.42,8.84q.27,3.72.69,6.24a27.36,27.36,0,0,0,1,4.14v.31h-17.7v-.31a24.57,24.57,0,0,0,.92-4.14c.26-1.68.47-3.76.65-6.24s.32-5.42.43-8.84.15-7.43.15-12Z" transform="translate(-158.84 -248.93)"/><path class="cls-1" d="M422.08,305.79a41.18,41.18,0,0,1,3.4-16.77,41.84,41.84,0,0,1,23.25-22.36A45.83,45.83,0,0,1,466,263.44a47.89,47.89,0,0,1,17,3,41.47,41.47,0,0,1,13.94,8.62,40.3,40.3,0,0,1,9.38,13.56,44.46,44.46,0,0,1,3.45,17.84,44,44,0,0,1-2.91,15.82,40.15,40.15,0,0,1-8.5,13.48,41,41,0,0,1-13.79,9.34,50.83,50.83,0,0,1-35.69.5,41.88,41.88,0,0,1-13.94-8.54,39.92,39.92,0,0,1-9.42-13.48A44.2,44.2,0,0,1,422.08,305.79Zm45.64,37.38a24.94,24.94,0,0,0,10.72-2.3,24.35,24.35,0,0,0,8.47-6.59,30.57,30.57,0,0,0,5.51-10.45,46,46,0,0,0,2-13.9,67.16,67.16,0,0,0-1.88-16.31,39.26,39.26,0,0,0-5.67-13A26.37,26.37,0,0,0,464.12,269a25.68,25.68,0,0,0-10.72,2.22,23.92,23.92,0,0,0-8.46,6.44A30.25,30.25,0,0,0,439.38,288a45.24,45.24,0,0,0-2,13.94,64.38,64.38,0,0,0,2,16.27,41.32,41.32,0,0,0,5.74,13.1,27.87,27.87,0,0,0,9.46,8.73A26.47,26.47,0,0,0,467.72,343.17Z" transform="translate(-158.84 -248.93)"/><path class="cls-1" d="M619.14,268.38h-1.69a22.13,22.13,0,0,0-2-4,18.37,18.37,0,0,0-3.52-4.18,18.29,18.29,0,0,0-12.6-4.55,18.21,18.21,0,0,0-6.67,1.14,13.3,13.3,0,0,0-4.86,3.22,13.73,13.73,0,0,0-3,4.9,19,19,0,0,0-1,6.28,19.68,19.68,0,0,0,3.1,10.53,60.63,60.63,0,0,0,7.77,9.92q4.68,4.9,10.11,9.81A124.36,124.36,0,0,1,615,311.65a58.36,58.36,0,0,1,7.78,11.07,26,26,0,0,1,3.1,12.44,30.59,30.59,0,0,1-1.73,10,25.73,25.73,0,0,1-5.32,9,26.86,26.86,0,0,1-9.27,6.47,33.34,33.34,0,0,1-13.48,2.49,42,42,0,0,1-8.31-.8,54.18,54.18,0,0,1-7.27-2,47.53,47.53,0,0,1-6-2.56,42.72,42.72,0,0,1-4.32-2.53L572,338.3h1.91a24.2,24.2,0,0,0,2.76,6.86,24,24,0,0,0,4.71,5.74,22.57,22.57,0,0,0,6.4,4,20.44,20.44,0,0,0,7.88,1.49,19.52,19.52,0,0,0,7-1.19A16,16,0,0,0,608,351.9a14.27,14.27,0,0,0,3.4-5,16.69,16.69,0,0,0,1.19-6.35,22.48,22.48,0,0,0-1.76-8.93,35.54,35.54,0,0,0-4.63-7.77,65.12,65.12,0,0,0-6.51-7.12q-3.64-3.45-7.47-6.93c-2.56-2.33-5-4.72-7.47-7.17a57.71,57.71,0,0,1-6.51-7.85,40,40,0,0,1-4.63-9,30.14,30.14,0,0,1-1.76-10.53,24.83,24.83,0,0,1,2.33-10.91,26.26,26.26,0,0,1,6.21-8.31,27.67,27.67,0,0,1,8.76-5.29,28.7,28.7,0,0,1,10.11-1.83,37.56,37.56,0,0,1,7,.61,47.26,47.26,0,0,1,5.78,1.45c1.71.57,3.21,1.13,4.48,1.69l3.14,1.38Z" transform="translate(-158.84 -248.93)"/><path class="cls-1" d="M646.63,296.37q0-6.89-.15-12c-.1-3.4-.24-6.33-.42-8.81s-.41-4.56-.69-6.24a27.36,27.36,0,0,0-1-4.14v-.31h17.77v.31a27.36,27.36,0,0,0-1,4.14q-.42,2.52-.69,6.24c-.18,2.48-.32,5.41-.42,8.81s-.15,7.39-.15,12v19.3q0,6.9.15,12t.42,8.84q.27,3.72.69,6.24a27.36,27.36,0,0,0,1,4.14v.31H644.41v-.31a27.36,27.36,0,0,0,1-4.14q.42-2.52.69-6.24t.42-8.84q.15-5.13.15-12Z" transform="translate(-158.84 -248.93)"/><path class="cls-1" d="M713.27,312.07l-19.76,25c-.72.87-1.42,1.79-2.11,2.76s-1.32,1.91-1.88,2.83a19.43,19.43,0,0,0-1.34,2.57,5.48,5.48,0,0,0-.5,2h-13v-.31l3.6-3.41a48.9,48.9,0,0,0,4.9-5.55l25.42-32.17-25-33.54a52.53,52.53,0,0,0-4.14-4.64,14.89,14.89,0,0,0-2.91-2.41v-.31h21.83a15.86,15.86,0,0,0,1,4.33,25.59,25.59,0,0,0,3.86,6.93l14.09,19.3,16.17-20.37c.66-.87,1.32-1.79,2-2.76s1.25-1.91,1.76-2.83a25.06,25.06,0,0,0,1.26-2.57,5.43,5.43,0,0,0,.5-2h12.87v.31a26.59,26.59,0,0,0-2.84,2.53,56.62,56.62,0,0,0-4.36,5.13l-22.44,28.57,27,36.53a48.76,48.76,0,0,0,5,6,20.69,20.69,0,0,0,3.45,2.95v.31H736a14.93,14.93,0,0,0-1-4.41,27.12,27.12,0,0,0-4-6.85Z" transform="translate(-158.84 -248.93)"/></svg>